<?xml version="1.0" encoding="UTF-8" standalone="no"?>
<!DOCTYPE svg PUBLIC "-//W3C//DTD SVG 1.1//EN"
 "http://www.w3.org/Graphics/SVG/1.1/DTD/svg11.dtd">
<!-- Generated by graphviz version 2.40.1 (20161225.0304)
 -->
<!-- Title: root Pages: 1 -->
<svg width="169pt" height="257pt"
 viewBox="0.00 0.00 169.00 257.07" xmlns="http://www.w3.org/2000/svg" xmlns:xlink="http://www.w3.org/1999/xlink">
<g id="graph0" class="graph" transform="scale(1 1) rotate(0) translate(4 253.066)">
<title>root</title>
<polygon fill="#ffffff" stroke="transparent" points="-4,4 -4,-253.066 165,-253.066 165,4 -4,4"/>
<!-- 140312933457056 -->
<g id="node1" class="node">
<title>140312933457056</title>
<ellipse fill="none" stroke="#0b51c3" stroke-opacity="0.949020" cx="98" cy="-151.033" rx="31.6406" ry="17.8571"/>
<text text-anchor="start" x="84" y="-147.833" font-family="Times,serif" font-size="8.00" fill="#000000">(×)</text>
<text text-anchor="start" x="95" y="-147.833" font-family="Times,serif" font-size="14.00" fill="#000000"> &#160;</text>
<polyline fill="none" stroke="#000000" points="103,-142.033 113,-142.033 "/>
<text text-anchor="start" x="104" y="-147.833" font-family="Times,serif" font-style="italic" font-size="14.00" fill="#000000">ft</text>
<text text-anchor="start" x="34.1802" y="-171.3107" font-family="Times,serif" font-size="8.00" fill="#000000">multiplier</text>
</g>
<!-- 140312892089248 -->
<g id="node5" class="node">
<title>140312892089248</title>
<ellipse fill="none" stroke="#0b51c3" stroke-opacity="0.949020" cx="98" cy="-75.6777" rx="31.6605" ry="17.8238"/>
<polyline fill="none" stroke="#0b51c3" stroke-opacity="0.949020" points="121.6912,-91.9359 74.3088,-91.9359 "/>
<polyline fill="none" stroke="#0b51c3" stroke-opacity="0.949020" points="121.6912,-59.4194 74.3088,-59.4194 "/>
<ellipse fill="none" stroke="#0b51c3" stroke-opacity="0.949020" cx="98" cy="-75.6777" rx="35.6405" ry="21.8568"/>
<polyline fill="none" stroke="#0b51c3" stroke-opacity="0.949020" points="121.6912,-91.9359 74.3088,-91.9359 "/>
<polyline fill="none" stroke="#0b51c3" stroke-opacity="0.949020" points="121.6912,-59.4194 74.3088,-59.4194 "/>
<text text-anchor="start" x="84" y="-72.4777" font-family="Times,serif" font-size="8.00" fill="#000000">ℝ</text>
<text text-anchor="start" x="91" y="-72.4777" font-family="Times,serif" baseline-shift="super" font-size="8.00" fill="#000000">+</text>
<text text-anchor="start" x="95" y="-72.4777" font-family="Times,serif" font-size="14.00" fill="#000000"> &#160;</text>
<polyline fill="none" stroke="#000000" points="103,-66.6777 113,-66.6777 "/>
<text text-anchor="start" x="104" y="-72.4777" font-family="Times,serif" font-style="italic" font-size="14.00" fill="#000000">ft</text>
<text text-anchor="start" x="34.1802" y="-99.9553" font-family="Times,serif" font-size="8.00" fill="#000000">observer</text>
</g>
<!-- 140312933457056&#45;&gt;140312892089248 -->
<g id="edge1" class="edge">
<title>140312933457056&#45;&gt;140312892089248</title>
<path fill="none" stroke="#0b51c3" stroke-opacity="0.949020" d="M98,-133.1748C98,-122.4683 98,-108.7768 98,-97.4404"/>
</g>
<!-- 140312892089632 -->
<g id="node2" class="node">
<title>140312892089632</title>
<ellipse fill="none" stroke="#0b51c3" stroke-opacity="0.949020" cx="62" cy="-222.3883" rx="27" ry="17.8571"/>
<polyline fill="none" stroke="#000000" points="56,-213.3883 68,-213.3883 "/>
<text text-anchor="start" x="57" y="-219.1883" font-family="Times,serif" font-style="italic" font-size="14.00" fill="#000000">kt</text>
<text text-anchor="start" x="0" y="-242.666" font-family="Times,serif" font-size="8.00" fill="#000000">activations</text>
</g>
<!-- 140312892089632&#45;&gt;140312933457056 -->
<g id="edge2" class="edge">
<title>140312892089632&#45;&gt;140312933457056</title>
<path fill="none" stroke="#0b51c3" stroke-opacity="0.949020" d="M70.5315,-205.4781C76.187,-194.2684 83.5859,-179.6031 89.2797,-168.3175"/>
</g>
<!-- 140312892089152 -->
<g id="node3" class="node">
<title>140312892089152</title>
<polyline fill="none" stroke="#0b51c3" stroke-opacity="0.949020" points="85,-18 76,-18 "/>
<polyline fill="none" stroke="#0b51c3" stroke-opacity="0.949020" points="85,-9 94,-9 "/>
<polyline fill="none" stroke="#0b51c3" stroke-opacity="0.949020" points="94,-18 85,-18 "/>
<polyline fill="none" stroke="#0b51c3" stroke-opacity="0.949020" points="94,-9 103,-9 "/>
<polyline fill="none" stroke="#0b51c3" stroke-opacity="0.949020" points="103,-18 94,-18 "/>
<polyline fill="none" stroke="#0b51c3" stroke-opacity="0.949020" points="103,-9 112,-9 "/>
<polyline fill="none" stroke="#0b51c3" stroke-opacity="0.949020" points="112,-18 103,-18 "/>
<polyline fill="none" stroke="#0b51c3" stroke-opacity="0.949020" points="121,-18 112,-18 "/>
<polyline fill="none" stroke="#0b51c3" stroke-opacity="0.949020" points="94,0 103,0 "/>
<text text-anchor="start" x="62.5" y="-20.6" font-family="Times,serif" font-size="8.00" fill="#000000">root</text>
</g>
<!-- 140312892089200 -->
<g id="node4" class="node">
<title>140312892089200</title>
<ellipse fill="none" stroke="#0b51c3" stroke-opacity="0.949020" cx="134" cy="-222.3883" rx="27" ry="16.0303"/>
<text text-anchor="start" x="125" y="-219.1883" font-family="Times,serif" font-style="italic" font-size="14.00" fill="#000000">f</text>
<text text-anchor="start" x="129" y="-219.1883" font-family="Times,serif" font-size="14.00" fill="#000000"> |</text>
<text text-anchor="start" x="136" y="-219.1883" font-family="Times,serif" font-style="italic" font-size="14.00" fill="#000000">k</text>
<text text-anchor="start" x="107" y="-241.2518" font-family="Times,serif" font-size="8.00" fill="#000000">atoms</text>
</g>
<!-- 140312892089200&#45;&gt;140312933457056 -->
<g id="edge3" class="edge">
<title>140312892089200&#45;&gt;140312933457056</title>
<path fill="none" stroke="#0b51c3" stroke-opacity="0.949020" d="M126.0104,-206.5523C120.2518,-195.1381 112.4888,-179.7511 106.5957,-168.0705"/>
</g>
<!-- 140312892089248&#45;&gt;140312892089152 -->
<g id="edge4" class="edge">
<title>140312892089248&#45;&gt;140312892089152</title>
<path fill="none" stroke="#0b51c3" stroke-opacity="0.949020" d="M98,-53.8449C98,-41.6911 98,-27.212 98,-18.0618"/>
</g>
</g>
</svg>
